<svg width="196" height="50" viewBox="0 0 196 50" fill="none" xmlns="http://www.w3.org/2000/svg">
<g clip-path="url(#clip0)">
<path d="M13.2527 1.82929C13.6356 1.74734 14.0343 1.78265 14.3968 1.93059C14.654 2.04393 14.8808 2.21629 15.0589 2.43371C15.237 2.65113 15.3613 2.90747 15.4217 3.18193C15.4861 3.56963 15.4343 3.96772 15.2728 4.32601C15.0939 4.68135 14.8017 4.96689 14.4423 5.13742C14.0829 5.30795 13.6768 5.35372 13.2885 5.2675C12.8967 5.1735 12.5482 4.94991 12.2995 4.63301C12.0507 4.3161 11.9163 3.92446 11.918 3.52158C11.9261 3.1327 12.0608 2.75705 12.3016 2.45165C12.5425 2.14625 12.8764 1.92774 13.2527 1.82929Z" fill="white"/>
<path d="M35.9027 1.82958C36.2886 1.74862 36.6901 1.78815 37.0528 1.94279C37.3443 2.0782 37.5939 2.28969 37.7753 2.555C37.9567 2.82031 38.0632 3.12961 38.0837 3.45036C38.0901 3.69893 38.0465 3.94626 37.9554 4.17762C37.8643 4.40898 37.7276 4.61964 37.5533 4.79705C37.3536 5.00161 37.1068 5.154 36.8344 5.24085C36.5621 5.32771 36.2726 5.34636 35.9913 5.29517C35.7101 5.24398 35.4457 5.12452 35.2214 4.94728C34.9972 4.77004 34.8198 4.54043 34.705 4.27863C34.5635 3.92744 34.5182 3.54482 34.5739 3.1703C34.6483 2.84509 34.8121 2.54719 35.047 2.31025C35.2818 2.07332 35.5782 1.90681 35.9027 1.82958Z" fill="white"/>
<path d="M33.6309 28.6021H36.3183C36.3183 32.1773 36.3183 35.7526 36.3183 39.2861H33.6428C33.6309 35.7049 33.6428 32.1654 33.6309 28.6021Z" fill="white"/>
<path d="M4.59517 0.274314C5.16428 0.0553386 5.77449 -0.0361901 6.3828 0.0061715H44.0303C44.5074 0.00602237 44.9797 0.101379 45.4194 0.286616C45.8591 0.471853 46.2573 0.743224 46.5905 1.08474C46.9237 1.42626 47.1852 1.83102 47.3595 2.27516C47.5338 2.7193 47.6175 3.19384 47.6055 3.67082C47.6055 4.86257 47.6055 6.10795 47.6055 7.3295C47.1975 7.18901 46.7677 7.12242 46.3363 7.13286H3.73711C3.28418 7.12103 2.83262 7.18755 2.40234 7.3295C2.40234 6.06028 2.40234 4.79702 2.40234 3.5278C2.41088 2.83077 2.623 2.15144 3.0126 1.57339C3.4022 0.995347 3.95228 0.543801 4.59517 0.274314ZM13.2592 1.82955C12.8797 1.92607 12.5424 2.14451 12.2991 2.45131C12.0559 2.75812 11.92 3.13632 11.9125 3.5278C11.9108 3.93068 12.0452 4.32233 12.294 4.63923C12.5428 4.95614 12.8913 5.17972 13.2831 5.27372C13.6714 5.35994 14.0774 5.31417 14.4368 5.14364C14.7962 4.97311 15.0885 4.68758 15.2673 4.33224C15.4289 3.97395 15.4807 3.57585 15.4163 3.18815C15.3558 2.91369 15.2315 2.65735 15.0535 2.43993C14.8754 2.22251 14.6486 2.05015 14.3914 1.93681C14.0313 1.78808 13.6348 1.75071 13.2533 1.82955H13.2592ZM35.9025 1.82955C35.5783 1.90823 35.2826 2.07606 35.0488 2.31405C34.8151 2.55204 34.6526 2.85069 34.5797 3.17624C34.524 3.55077 34.5692 3.93338 34.7108 4.28457C34.8256 4.54637 35.0029 4.77597 35.2272 4.95321C35.4515 5.13046 35.7158 5.24992 35.9971 5.3011C36.2783 5.35229 36.5678 5.33364 36.8402 5.24679C37.1125 5.15993 37.3594 5.00754 37.5591 4.80298C37.7333 4.62557 37.87 4.41491 37.9611 4.18355C38.0522 3.95219 38.0959 3.70487 38.0894 3.4563C38.069 3.13555 37.9624 2.82624 37.781 2.56093C37.5996 2.29563 37.35 2.08414 37.0585 1.94873C36.6947 1.79085 36.2909 1.74922 35.9025 1.82955Z" fill="#C7C7C7"/>
<path d="M35.6941 17.9179C35.8969 17.8485 36.1134 17.8281 36.3257 17.8583C36.3257 21.4336 36.3257 25.0088 36.3257 28.5841V28.6139H33.6383V28.5543C33.6383 26.0834 33.6383 23.6145 33.6383 21.1476C31.8506 21.7434 30.063 22.3393 28.2754 22.9352C28.2754 22.1308 28.2754 21.3204 28.2754 20.5159C30.7423 19.6519 33.1973 18.7938 35.6941 17.9179Z" fill="#C7C7C7"/>
<path d="M13.8371 19.199C14.9724 18.3507 16.3413 17.8722 17.7579 17.8285C19.1606 17.7382 20.5605 18.0438 21.798 18.7104C22.7622 19.2688 23.5128 20.1327 23.9312 21.1654C24.337 22.1967 24.4803 23.3126 24.3483 24.4129C24.1753 25.2714 23.7926 26.0738 23.2343 26.7486C22.676 27.4233 21.9594 27.9495 21.1485 28.2802C21.3742 28.3483 21.5935 28.436 21.8039 28.5423C21.6666 28.5694 21.5267 28.5813 21.3868 28.5781C19.5217 28.5781 17.6566 28.5781 15.7915 28.5781C15.7915 28.1729 15.7915 27.7677 15.7915 27.3863C17.1382 27.3566 18.5564 27.5174 19.8137 26.9275C20.329 26.7072 20.779 26.3579 21.1202 25.9134C21.4615 25.4688 21.6826 24.9439 21.7622 24.3891C21.9494 23.3086 21.7377 22.1968 21.1663 21.2607C20.9056 20.9192 20.5786 20.6338 20.2048 20.4219C19.8311 20.2099 19.4183 20.0757 18.9914 20.0273C17.8396 19.8084 16.6478 20.0386 15.6604 20.6708C15.2017 21.0159 14.8339 21.4675 14.5888 21.9866C14.3438 22.5057 14.2289 23.0767 14.2542 23.6502C13.3902 23.6502 12.5261 23.6502 11.6621 23.6502C11.6679 23.1742 11.7279 22.7004 11.8409 22.238C12.139 21.0264 12.8435 19.9538 13.8371 19.199Z" fill="#C7C7C7"/>
<path d="M2.40184 7.32933C2.83212 7.18739 3.28368 7.12086 3.73661 7.13269H46.3358C46.7672 7.12225 47.197 7.18884 47.605 7.32933C48.2249 7.54937 48.772 7.93614 49.1863 8.44708C49.6005 8.95802 49.8657 9.57333 49.9528 10.2253C49.7199 9.30477 49.15 8.5052 48.3558 7.98479C47.7742 7.60458 47.0962 7.39789 46.4014 7.38891C32.1559 7.38891 17.9105 7.38891 3.6651 7.38891C3.12678 7.37787 2.59278 7.48717 2.10207 7.70881C1.61137 7.93045 1.17634 8.25885 0.828729 8.67005C0.533033 9.04737 0.284875 9.45964 0.0898438 9.89756C0.226766 9.30897 0.510642 8.76469 0.914957 8.31557C1.31927 7.86644 1.83083 7.52713 2.40184 7.32933Z" fill="#4483EF"/>
<path d="M33.578 28.5542H33.6256V28.584C33.6256 32.1592 33.6256 35.7345 33.6256 39.2681H36.3011C36.3011 35.6928 36.3011 32.1175 36.3011 28.584V28.5542H36.3428C36.7398 28.576 37.1376 28.576 37.5346 28.5542C40.8914 28.5542 44.2461 28.5542 47.5989 28.5542C47.9863 34.1674 48.3497 39.7805 48.7371 45.3877C48.8253 46.0301 48.8052 46.6827 48.6775 47.3183C48.5289 47.514 48.4029 47.7259 48.3021 47.95C47.9858 48.4673 47.5431 48.8958 47.0156 49.1949C46.4882 49.4941 45.8933 49.6542 45.2869 49.6602C31.8996 49.6602 18.5142 49.6602 5.13082 49.6602C4.70962 49.6857 4.28688 49.6557 3.87352 49.5708C3.40722 49.4591 2.96762 49.2564 2.58002 48.9741C2.19243 48.6918 1.86451 48.3357 1.61515 47.9262C1.5269 47.736 1.42117 47.5545 1.29934 47.3839C1.17366 46.5344 1.17366 45.6711 1.29934 44.8216C1.66878 39.423 2.02035 34.0243 2.38979 28.6257C6.85092 28.6257 11.312 28.6257 15.7732 28.6257C15.7732 28.8819 15.7732 29.1382 15.7732 29.3944C17.1854 29.3944 18.6691 29.2514 20.0039 29.8115C20.4576 29.9869 20.8664 30.2614 21.2005 30.615C21.5345 30.9686 21.7853 31.3924 21.9345 31.8554C22.2475 32.9001 22.2162 34.0178 21.8452 35.0433C21.6657 35.5153 21.3791 35.9391 21.0079 36.2814C20.6366 36.6237 20.1909 36.8751 19.706 37.0157C18.5211 37.3782 17.2472 37.3192 16.1009 36.8488C15.6592 36.6624 15.2635 36.3819 14.9413 36.0269C14.6192 35.6718 14.3784 35.2507 14.2358 34.793C14.114 34.385 14.0518 33.9615 14.0511 33.5357H11.4888C11.4621 34.678 11.7976 35.7994 12.4474 36.7392C13.0971 37.6791 14.0277 38.3891 15.1058 38.7675C16.5046 39.293 18.0167 39.4429 19.4914 39.2025C20.9416 39.0053 22.2797 38.3152 23.2812 37.248C24.1533 36.2379 24.6518 34.9589 24.6935 33.6251C24.8103 32.3499 24.4517 31.0766 23.6864 30.0499C23.2153 29.4801 22.6387 29.0067 21.9882 28.6555C22.2957 28.6357 22.6042 28.6357 22.9118 28.6555H32.3922C32.7855 28.59 33.1966 28.6257 33.578 28.5542Z" fill="#4483EF"/>
<path d="M0.828156 8.70573C1.17577 8.29453 1.6108 7.96613 2.1015 7.74448C2.5922 7.52284 3.1262 7.41355 3.66453 7.42459C17.91 7.42459 32.1554 7.42459 46.4008 7.42459C47.0957 7.43357 47.7736 7.64026 48.3553 8.02046C49.1495 8.54087 49.7194 9.34045 49.9522 10.261C50.0053 10.5825 50.0053 10.9107 49.9522 11.2322C49.1776 17.0301 48.3731 22.822 47.6104 28.6199H37.9632C37.4269 28.6199 36.8906 28.6199 36.3543 28.6199H36.3126C36.3126 25.0447 36.3126 21.4694 36.3126 17.8941C36.1003 17.8639 35.8839 17.8843 35.681 17.9537C33.2081 18.8297 30.7292 19.6877 28.2564 20.5696C28.2564 21.3741 28.2564 22.1845 28.2564 22.9889C30.044 22.393 31.8316 21.7971 33.6192 21.2013C33.6192 23.6722 33.6192 26.1411 33.6192 28.608H33.5716C29.8295 28.608 26.0874 28.608 22.3453 28.608C22.1623 28.6444 21.974 28.6444 21.7911 28.608C21.5807 28.5016 21.3613 28.4139 21.1356 28.3458C21.9466 28.0151 22.6631 27.489 23.2214 26.8142C23.7797 26.1395 24.1624 25.3371 24.3355 24.4786C24.4675 23.3782 24.3242 22.2623 23.9184 21.2311C23.5 20.1983 22.7494 19.3345 21.7851 18.776C20.5578 18.0888 19.162 17.7605 17.757 17.8286C16.343 17.8654 14.9743 18.3354 13.8361 19.1753C12.8416 19.9196 12.131 20.9812 11.8221 22.1845C11.7091 22.6469 11.6491 23.1207 11.6433 23.5967C12.5073 23.5967 13.3714 23.5967 14.2354 23.5967C14.2101 23.0232 14.325 22.4522 14.57 21.9331C14.8151 21.4139 15.1829 20.9623 15.6416 20.6173C16.629 19.9851 17.8208 19.7548 18.9726 19.9738C19.3995 20.0222 19.8123 20.1564 20.186 20.3684C20.5598 20.5803 20.8869 20.8657 21.1475 21.2072C21.7189 22.1433 21.9306 23.255 21.7434 24.3356C21.6638 24.8903 21.4427 25.4153 21.1014 25.8598C20.7602 26.3044 20.3102 26.6537 19.7949 26.874C18.5376 27.4699 17.1194 27.2971 15.7727 27.3328H15.7608C15.7608 27.738 15.7608 28.1432 15.7608 28.5246C11.2957 28.5246 6.8326 28.5246 2.37147 28.5246C1.60875 22.8439 0.842062 17.1652 0.0713951 11.4885C-0.0394234 10.9539 -0.0394234 10.4023 0.0713951 9.86769C0.276654 9.45171 0.530693 9.06165 0.828156 8.70573Z" fill="#3664D0"/>
<path d="M1.32227 47.3902C1.4441 47.5608 1.54983 47.7423 1.63808 47.9325C1.87812 48.35 2.19874 48.7157 2.58132 49.0083C2.9639 49.3008 3.40081 49.5144 3.86666 49.6367C4.28001 49.7216 4.70275 49.7516 5.12396 49.7261C18.5113 49.7261 31.8967 49.7261 45.2801 49.7261C45.8864 49.7201 46.4813 49.56 47.0088 49.2608C47.5362 48.9617 47.9789 48.5333 48.2952 48.0159C48.396 47.7918 48.522 47.5799 48.6706 47.3843C48.5102 47.9559 48.2099 48.4786 47.7969 48.9051C47.3839 49.3316 46.8711 49.6486 46.305 49.8274C45.6673 49.9911 45.0071 50.0494 44.3505 50.0002H5.26697C4.74359 50.0326 4.21841 49.9803 3.71173 49.8452C3.13977 49.6688 2.62128 49.3515 2.2038 48.9226C1.78632 48.4936 1.48321 47.9667 1.32227 47.3902Z" fill="#3664D0"/>
<path d="M78.4118 39.0835C75.9645 39.0503 73.5802 38.302 71.5527 36.931C69.5252 35.5599 67.9429 33.6259 67.0005 31.367C66.0582 29.1081 65.797 26.6229 66.2492 24.2174C66.7013 21.812 67.847 19.5912 69.5452 17.8286C70.691 16.6543 72.0679 15.7303 73.5889 15.1149C75.1099 14.4995 76.7419 14.2062 78.382 14.2534C80.0366 14.2019 81.6814 14.5245 83.194 15.1972C84.7065 15.8699 86.0477 16.8753 87.1176 18.1385L84.9247 20.2658C84.1462 19.278 83.149 18.4845 82.0115 17.9478C80.8741 17.4111 79.6275 17.1459 78.3701 17.1732C77.1445 17.1408 75.9254 17.36 74.7878 17.8171C73.6502 18.2741 72.6184 18.9595 71.7559 19.8308C70.0617 21.7111 69.1241 24.1524 69.1241 26.6833C69.1241 29.2143 70.0617 31.6556 71.7559 33.5359C72.6184 34.4072 73.6502 35.0925 74.7878 35.5496C75.9254 36.0067 77.1445 36.2259 78.3701 36.1935C81.1509 36.1935 83.5542 35.0316 85.5802 32.7077L87.8088 34.8647C86.6767 36.2165 85.2497 37.2908 83.6376 38.005C81.9921 38.7316 80.2106 39.0993 78.4118 39.0835Z" fill="#5F6368"/>
<path d="M96.42 21.7378C98.6803 21.7378 100.468 22.3337 101.783 23.5254C102.446 24.1642 102.964 24.9379 103.302 25.7942C103.641 26.6506 103.791 27.5696 103.743 28.4891V38.5236H100.818V36.301H100.686C100.158 37.1642 99.4149 37.8751 98.529 38.364C97.643 38.853 96.6452 39.103 95.6334 39.0897C93.9803 39.1464 92.3668 38.5759 91.1167 37.4928C90.5417 37.0025 90.083 36.3904 89.7739 35.7009C89.4647 35.0114 89.3127 34.2618 89.329 33.5064C89.3024 32.7317 89.4622 31.9621 89.7951 31.2621C90.128 30.5622 90.6241 29.9524 91.2418 29.4842C92.7237 28.4225 94.522 27.8952 96.3425 27.9885C97.899 27.9276 99.4447 28.2704 100.829 28.9837V28.2865C100.833 27.7701 100.721 27.2594 100.503 26.7915C100.284 26.3236 99.9643 25.9101 99.5662 25.5812C98.7503 24.8454 97.6853 24.4471 96.5868 24.4669C95.7831 24.4485 94.9881 24.6372 94.2784 25.015C93.5688 25.3928 92.9683 25.9469 92.5348 26.624L89.8415 24.9317C91.3232 22.8024 93.5161 21.7378 96.42 21.7378ZM92.4633 33.5659C92.4609 33.9553 92.5516 34.3397 92.7278 34.6869C92.904 35.0341 93.1606 35.3342 93.4763 35.5621C94.1545 36.096 94.9969 36.3782 95.8598 36.3606C97.15 36.3577 98.3864 35.8435 99.298 34.9305C99.7737 34.5106 100.155 33.9943 100.416 33.4159C100.677 32.8375 100.812 32.2102 100.812 31.5757C99.6489 30.7586 98.2437 30.3595 96.8252 30.4436C95.7208 30.4045 94.633 30.7198 93.7206 31.3433C93.3417 31.5788 93.028 31.9058 92.8083 32.2941C92.5886 32.6825 92.47 33.1198 92.4633 33.5659Z" fill="#5F6368"/>
<path d="M110.237 14.7661V38.5535H107.18V14.7661H110.237Z" fill="#5F6368"/>
<path d="M121.099 39.0838C119.996 39.1159 118.898 38.9131 117.879 38.4889C116.86 38.0646 115.943 37.4285 115.188 36.6228C113.621 34.9406 112.786 32.7055 112.864 30.4078C112.79 28.1282 113.599 25.9079 115.123 24.2107C115.869 23.4386 116.762 22.8221 117.748 22.3972C118.735 21.9722 119.796 21.7471 120.87 21.7349C121.944 21.7227 123.009 21.9237 124.005 22.3261C125.001 22.7286 125.907 23.3246 126.671 24.0796C128.101 25.6408 128.816 27.8257 128.816 30.6343L128.78 30.9679H115.987C115.978 31.6852 116.115 32.3968 116.39 33.0595C116.664 33.7222 117.07 34.3222 117.584 34.8233C118.066 35.2963 118.637 35.6689 119.264 35.9195C119.891 36.1701 120.561 36.2937 121.237 36.2832C123.187 36.2832 124.714 35.3079 125.819 33.3574L128.542 34.6862C127.848 36.0218 126.795 37.138 125.503 37.9099C124.171 38.6991 122.647 39.1054 121.099 39.0838ZM116.213 28.4534H125.557C125.524 27.9177 125.386 27.3938 125.15 26.912C124.914 26.4302 124.584 26.0001 124.18 25.6468C123.248 24.8688 122.056 24.4709 120.843 24.5325C119.754 24.5077 118.693 24.8853 117.864 25.5931C117.013 26.3372 116.434 27.3436 116.219 28.4534H116.213Z" fill="#5F6368"/>
<path d="M131.599 22.274H134.495V24.5324H134.626C135.145 23.6853 135.887 22.9969 136.771 22.5421C137.68 22.0267 138.705 21.7518 139.75 21.7437C141.736 21.7437 143.27 22.3137 144.35 23.4538C145.431 24.5939 145.967 26.2167 145.959 28.3221V38.5533H142.902V28.5188C142.835 25.8612 141.494 24.5324 138.88 24.5324C138.291 24.5263 137.709 24.6565 137.179 24.9129C136.648 25.1693 136.185 25.5448 135.823 26.0101C135.002 27.004 134.566 28.2606 134.596 29.5496V38.5533H131.539V22.274H131.599Z" fill="#5F6368"/>
<path d="M156.417 39.0834C155.374 39.0875 154.343 38.8635 153.396 38.427C152.449 37.9906 151.609 37.3523 150.934 36.5569C149.476 34.8409 148.676 32.6623 148.676 30.4105C148.676 28.1586 149.476 25.98 150.934 24.264C151.609 23.4686 152.449 22.8303 153.396 22.3939C154.343 21.9575 155.374 21.7334 156.417 21.7375C157.553 21.7234 158.675 21.9852 159.688 22.5002C160.616 22.9575 161.402 23.6577 161.964 24.5262H162.095L161.964 22.2678V14.7598H165.021V38.5471H162.095V36.3007H161.964C161.403 37.1694 160.616 37.8696 159.688 38.3267C158.675 38.8396 157.552 39.0993 156.417 39.0834ZM156.917 36.2947C157.614 36.3153 158.307 36.1799 158.945 35.8985C159.583 35.6171 160.151 35.1967 160.606 34.668C161.573 33.4678 162.1 31.9728 162.1 30.4313C162.1 28.8898 161.573 27.3948 160.606 26.1946C160.153 25.6604 159.587 25.234 158.949 24.9463C158.311 24.6587 157.617 24.5172 156.917 24.5321C156.218 24.5218 155.525 24.6654 154.888 24.9527C154.25 25.24 153.684 25.664 153.229 26.1946C152.211 27.3591 151.676 28.868 151.733 30.4134C151.668 31.9601 152.204 33.4718 153.229 34.6323C153.683 35.164 154.249 35.5891 154.887 35.8775C155.524 36.1658 156.218 36.3103 156.917 36.3007V36.2947Z" fill="#5F6368"/>
<path d="M174.759 21.7378C177.02 21.7378 178.807 22.3337 180.122 23.5254C180.785 24.1642 181.304 24.9379 181.642 25.7942C181.98 26.6506 182.13 27.5696 182.083 28.4891V38.5236H179.157V36.301H179.026C178.498 37.1633 177.756 37.8737 176.871 38.3626C175.986 38.8514 174.99 39.102 173.979 39.0897C172.33 39.1434 170.721 38.5731 169.474 37.4928C168.899 37.0027 168.44 36.3907 168.131 35.7012C167.821 35.0116 167.67 34.2619 167.686 33.5064C167.66 32.7317 167.82 31.9621 168.153 31.2621C168.485 30.5621 168.982 29.9524 169.599 29.4842C171.066 28.421 172.848 27.8836 174.658 27.9587C176.215 27.8975 177.76 28.2404 179.145 28.9539V28.2567C179.148 27.7403 179.037 27.2296 178.818 26.7617C178.6 26.2938 178.28 25.8803 177.882 25.5514C177.066 24.8156 176.001 24.4173 174.902 24.4371C174.099 24.4187 173.304 24.6074 172.594 24.9852C171.884 25.363 171.284 25.9171 170.851 26.5942L168.157 24.9019C169.655 22.7925 171.856 21.7378 174.759 21.7378ZM170.809 33.5659C170.806 33.9554 170.896 34.3399 171.073 34.6872C171.249 35.0345 171.506 35.3346 171.822 35.5621C172.5 36.096 173.342 36.3782 174.205 36.3606C175.495 36.3577 176.732 35.8435 177.644 34.9305C178.119 34.5106 178.5 33.9943 178.761 33.4159C179.022 32.8375 179.157 32.2102 179.157 31.5757C177.995 30.7582 176.589 30.3591 175.171 30.4436C174.066 30.4045 172.978 30.7198 172.066 31.3433C171.686 31.5781 171.371 31.9048 171.15 32.2932C170.93 32.6816 170.81 33.1193 170.803 33.5659H170.809Z" fill="#5F6368"/>
<path d="M188.576 38.5533H185.52V22.274H188.445V24.9316H188.576C188.944 23.9988 189.619 23.2192 190.489 22.7209C191.33 22.1511 192.316 21.8347 193.331 21.8092C194.103 21.7886 194.872 21.9244 195.59 22.2084L194.66 25.1878C194.083 25.0042 193.478 24.9255 192.873 24.9554C192.305 24.9605 191.745 25.0877 191.231 25.3283C190.717 25.5689 190.261 25.9172 189.893 26.3497C189.061 27.2272 188.601 28.3937 188.612 29.6032V38.5712L188.576 38.5533Z" fill="#5F6368"/>
</g>
<defs>
<clipPath id="clip0">
<rect width="195.59" height="50" fill="white"/>
</clipPath>
</defs>
</svg>
