<svg width="158" height="40" viewBox="0 0 158 40" fill="none" xmlns="http://www.w3.org/2000/svg">
<path d="M50.6055 31.3388L52.5725 26.8033C54.6982 28.3782 57.5219 29.197 60.3139 29.197C62.3762 29.197 63.677 28.4096 63.677 27.2128C63.6452 23.8742 51.3352 26.4884 51.24 18.1104C51.2083 13.8585 55.0155 10.5829 60.4091 10.5829C63.6135 10.5829 66.8179 11.3703 69.1023 13.1656L67.2621 17.7955C65.1681 16.4726 62.5665 15.5278 60.0918 15.5278C58.4103 15.5278 57.2998 16.3152 57.2998 17.323C57.3316 20.5986 69.7368 18.8033 69.8637 26.8033C69.8637 31.1498 66.1517 34.2049 60.8215 34.2049C56.9191 34.2049 53.334 33.2915 50.6055 31.3388ZM126.084 25.1656C125.1 26.8663 123.26 28.0317 121.134 28.0317C117.993 28.0317 115.455 25.512 115.455 22.3939C115.455 19.2758 117.993 16.7561 121.134 16.7561C123.26 16.7561 125.1 17.9215 126.084 19.6222L131.509 16.6301C129.479 13.0396 125.576 10.5829 121.134 10.5829C114.567 10.5829 109.237 15.8742 109.237 22.3939C109.237 28.9136 114.567 34.2049 121.134 34.2049C125.608 34.2049 129.479 31.7797 131.509 28.1577L126.084 25.1656ZM72.5922 0.787598H79.3818V33.764H72.5922V0.787598ZM134.174 0.787598V33.764H140.964V23.8742L149.022 33.764H157.716L147.468 22.0159L156.954 11.0553H148.642L140.964 20.1577V0.787598H134.174ZM99.5601 25.2285C98.5765 26.8348 96.546 28.0317 94.2617 28.0317C91.1207 28.0317 88.5826 25.512 88.5826 22.3939C88.5826 19.2758 91.1207 16.7561 94.2617 16.7561C96.546 16.7561 98.5765 18.0159 99.5601 19.6537V25.2285ZM99.5601 11.0553V13.7325C98.4496 11.8742 95.6894 10.5829 92.8023 10.5829C86.8376 10.5829 82.142 15.8112 82.142 22.3624C82.142 28.9136 86.8376 34.2049 92.8023 34.2049C95.6894 34.2049 98.4496 32.9136 99.5601 31.0553V33.7325H106.35V11.0553H99.5601Z" fill="black"/>
<path d="M8.63176 25.1965C8.63176 27.4958 6.75988 29.354 4.44381 29.354C2.12775 29.354 0.255859 27.4958 0.255859 25.1965C0.255859 22.8973 2.12775 21.0391 4.44381 21.0391H8.63176V25.1965ZM10.7257 25.1965C10.7257 22.8973 12.5976 21.0391 14.9137 21.0391C17.2298 21.0391 19.1016 22.8973 19.1016 25.1965V35.5902C19.1016 37.8895 17.2298 39.7477 14.9137 39.7477C12.5976 39.7477 10.7257 37.8895 10.7257 35.5902V25.1965Z" fill="#E01E5A"/>
<path d="M14.9122 8.50392C12.5962 8.50392 10.7243 6.64566 10.7243 4.34644C10.7243 2.04723 12.5962 0.188965 14.9122 0.188965C17.2283 0.188965 19.1002 2.04723 19.1002 4.34644V8.50392H14.9122ZM14.9122 10.6142C17.2283 10.6142 19.1002 12.4724 19.1002 14.7716C19.1002 17.0709 17.2283 18.9291 14.9122 18.9291H4.41061C2.09454 18.9291 0.222656 17.0709 0.222656 14.7716C0.222656 12.4724 2.09454 10.6142 4.41061 10.6142H14.9122Z" fill="#36C5F0"/>
<path d="M31.6964 14.7716C31.6964 12.4724 33.5683 10.6142 35.8844 10.6142C38.2005 10.6142 40.0723 12.4724 40.0723 14.7716C40.0723 17.0709 38.2005 18.9291 35.8844 18.9291H31.6964V14.7716ZM29.6025 14.7716C29.6025 17.0709 27.7306 18.9291 25.4145 18.9291C23.0984 18.9291 21.2266 17.0709 21.2266 14.7716V4.34644C21.2266 2.04723 23.0984 0.188965 25.4145 0.188965C27.7306 0.188965 29.6025 2.04723 29.6025 4.34644V14.7716Z" fill="#2EB67D"/>
<path d="M25.4145 31.4328C27.7306 31.4328 29.6025 33.291 29.6025 35.5902C29.6025 37.8895 27.7306 39.7477 25.4145 39.7477C23.0984 39.7477 21.2266 37.8895 21.2266 35.5902V31.4328H25.4145ZM25.4145 29.354C23.0984 29.354 21.2266 27.4958 21.2266 25.1965C21.2266 22.8973 23.0984 21.0391 25.4145 21.0391H35.9161C38.2322 21.0391 40.1041 22.8973 40.1041 25.1965C40.1041 27.4958 38.2322 29.354 35.9161 29.354H25.4145Z" fill="#ECB22E"/>
</svg>
