<svg width="90" height="90" viewBox="0 0 90 90" fill="none" xmlns="http://www.w3.org/2000/svg">
<path d="M7.8 50.135C6.99 50.135 6.21 50.03 5.46 49.82C4.72 49.6 4.105 49.295 3.615 48.905L4.365 47.225C5.395 47.945 6.545 48.305 7.815 48.305C8.495 48.305 9.015 48.2 9.375 47.99C9.745 47.77 9.93 47.465 9.93 47.075C9.93 46.735 9.76 46.47 9.42 46.28C9.09 46.08 8.505 45.89 7.665 45.71C6.725 45.52 5.975 45.29 5.415 45.02C4.865 44.74 4.46 44.405 4.2 44.015C3.95 43.615 3.825 43.12 3.825 42.53C3.825 41.89 4 41.315 4.35 40.805C4.71 40.295 5.21 39.9 5.85 39.62C6.49 39.33 7.23 39.185 8.07 39.185C8.83 39.185 9.56 39.295 10.26 39.515C10.96 39.735 11.52 40.035 11.94 40.415L11.19 42.095C10.25 41.375 9.215 41.015 8.085 41.015C7.485 41.015 7.005 41.135 6.645 41.375C6.285 41.615 6.105 41.94 6.105 42.35C6.105 42.59 6.17 42.79 6.3 42.95C6.44 43.11 6.67 43.255 6.99 43.385C7.31 43.505 7.765 43.625 8.355 43.745C9.725 44.045 10.71 44.435 11.31 44.915C11.92 45.395 12.225 46.05 12.225 46.88C12.225 47.88 11.835 48.675 11.055 49.265C10.275 49.845 9.19 50.135 7.8 50.135ZM16.4769 44.09V47.045C16.4769 47.465 16.5869 47.775 16.8069 47.975C17.0269 48.165 17.3119 48.26 17.6619 48.26C17.8819 48.26 18.1319 48.225 18.4119 48.155V49.91C18.0519 50.05 17.6169 50.12 17.1069 50.12C16.1669 50.12 15.4469 49.855 14.9469 49.325C14.4569 48.795 14.2119 48.05 14.2119 47.09V44.09H12.7719V42.395H14.2119V40.61L16.4769 39.875V42.395H18.4119V44.09H16.4769ZM27.1942 42.395V50H24.9592V48.875C24.7292 49.265 24.4042 49.57 23.9842 49.79C23.5642 50.01 23.0892 50.12 22.5592 50.12C21.8992 50.12 21.3142 49.96 20.8042 49.64C20.3042 49.32 19.9092 48.865 19.6192 48.275C19.3392 47.675 19.1992 46.985 19.1992 46.205C19.1992 45.425 19.3392 44.73 19.6192 44.12C19.9092 43.51 20.3092 43.04 20.8192 42.71C21.3292 42.37 21.9092 42.2 22.5592 42.2C23.0892 42.2 23.5642 42.315 23.9842 42.545C24.4042 42.775 24.7292 43.085 24.9592 43.475V42.395H27.1942ZM23.2192 48.395C23.7792 48.395 24.2092 48.205 24.5092 47.825C24.8092 47.445 24.9592 46.895 24.9592 46.175C24.9592 45.455 24.8092 44.905 24.5092 44.525C24.2092 44.135 23.7792 43.94 23.2192 43.94C22.6592 43.94 22.2242 44.14 21.9142 44.54C21.6042 44.94 21.4492 45.495 21.4492 46.205C21.4492 46.915 21.5992 47.46 21.8992 47.84C22.2092 48.21 22.6492 48.395 23.2192 48.395ZM33.4474 42.215C33.7674 42.215 34.0374 42.265 34.2574 42.365L34.2424 44.435C33.8724 44.265 33.5024 44.18 33.1324 44.18C32.5324 44.18 32.0724 44.345 31.7524 44.675C31.4424 44.995 31.2874 45.445 31.2874 46.025V50H29.0224V44.57C29.0224 43.76 28.9824 43.035 28.9024 42.395H31.0324L31.1824 43.7C31.3724 43.22 31.6674 42.855 32.0674 42.605C32.4774 42.345 32.9374 42.215 33.4474 42.215ZM38.7718 44.09V47.045C38.7718 47.465 38.8818 47.775 39.1018 47.975C39.3218 48.165 39.6068 48.26 39.9568 48.26C40.1768 48.26 40.4268 48.225 40.7068 48.155V49.91C40.3468 50.05 39.9118 50.12 39.4018 50.12C38.4618 50.12 37.7418 49.855 37.2418 49.325C36.7518 48.795 36.5068 48.05 36.5068 47.09V44.09H35.0668V42.395H36.5068V40.61L38.7718 39.875V42.395H40.7068V44.09H38.7718ZM48.6979 41.225H45.3529V39.32H54.4129V41.225H51.0679V50H48.6979V41.225ZM55.5068 42.395H57.7718V50H55.5068V42.395ZM57.8468 38.825V40.955H55.4318V38.825H57.8468ZM68.923 42.2C69.793 42.2 70.438 42.465 70.858 42.995C71.288 43.515 71.503 44.315 71.503 45.395V50H69.238V45.47C69.238 44.94 69.153 44.56 68.983 44.33C68.813 44.09 68.533 43.97 68.143 43.97C67.683 43.97 67.328 44.13 67.078 44.45C66.828 44.77 66.703 45.22 66.703 45.8V50H64.438V45.47C64.438 44.95 64.348 44.57 64.168 44.33C63.998 44.09 63.723 43.97 63.343 43.97C62.883 43.97 62.523 44.13 62.263 44.45C62.013 44.77 61.888 45.22 61.888 45.8V50H59.623V44.57C59.623 43.76 59.583 43.035 59.503 42.395H61.633L61.768 43.535C61.998 43.105 62.318 42.775 62.728 42.545C63.148 42.315 63.628 42.2 64.168 42.2C65.298 42.2 66.048 42.67 66.418 43.61C66.668 43.18 67.013 42.84 67.453 42.59C67.903 42.33 68.393 42.2 68.923 42.2ZM80.115 46.385H75.105C75.145 47.095 75.33 47.615 75.66 47.945C75.99 48.265 76.48 48.425 77.13 48.425C77.52 48.425 77.91 48.36 78.3 48.23C78.69 48.1 79.05 47.91 79.38 47.66L79.98 49.19C79.62 49.48 79.17 49.71 78.63 49.88C78.1 50.04 77.565 50.12 77.025 50.12C75.745 50.12 74.74 49.77 74.01 49.07C73.28 48.36 72.915 47.395 72.915 46.175C72.915 45.405 73.07 44.72 73.38 44.12C73.7 43.51 74.145 43.04 74.715 42.71C75.285 42.37 75.93 42.2 76.65 42.2C77.72 42.2 78.565 42.55 79.185 43.25C79.805 43.94 80.115 44.875 80.115 46.055V46.385ZM76.71 43.79C76.28 43.79 75.93 43.915 75.66 44.165C75.4 44.415 75.23 44.78 75.15 45.26H78.165C78.045 44.28 77.56 43.79 76.71 43.79ZM85.9621 42.215C86.2821 42.215 86.5521 42.265 86.7721 42.365L86.7571 44.435C86.3871 44.265 86.0171 44.18 85.6471 44.18C85.0471 44.18 84.5871 44.345 84.2671 44.675C83.9571 44.995 83.8021 45.445 83.8021 46.025V50H81.5371V44.57C81.5371 43.76 81.4971 43.035 81.4171 42.395H83.5471L83.6971 43.7C83.8871 43.22 84.1821 42.855 84.5821 42.605C84.9921 42.345 85.4521 42.215 85.9621 42.215Z" fill="#2B7AE4"/>
<g opacity="0.17" filter="url(#filter0_d)">
<path fill-rule="evenodd" clip-rule="evenodd" d="M25.8335 45.0002C25.8335 34.4202 34.4202 25.8335 45.0002 25.8335C55.5802 25.8335 64.1668 34.4202 64.1668 45.0002C64.1668 55.5802 55.5802 64.1668 45.0002 64.1668C34.4202 64.1668 25.8335 55.5802 25.8335 45.0002ZM52.6668 45.0002L41.1668 36.3752V53.6252L52.6668 45.0002Z" fill="#2B7AE4"/>
</g>
<defs>
<filter id="filter0_d" x="-3" y="-3" width="96" height="96" filterUnits="userSpaceOnUse" color-interpolation-filters="sRGB">
<feFlood flood-opacity="0" result="BackgroundImageFix"/>
<feColorMatrix in="SourceAlpha" type="matrix" values="0 0 0 0 0 0 0 0 0 0 0 0 0 0 0 0 0 0 127 0"/>
<feOffset/>
<feGaussianBlur stdDeviation="12.5"/>
<feColorMatrix type="matrix" values="0 0 0 0 0.168627 0 0 0 0 0.478431 0 0 0 0 0.894118 0 0 0 0.15 0"/>
<feBlend mode="normal" in2="BackgroundImageFix" result="effect1_dropShadow"/>
<feBlend mode="normal" in="SourceGraphic" in2="effect1_dropShadow" result="shape"/>
</filter>
</defs>
</svg>
