<svg width="109" height="50" viewBox="0 0 109 50" fill="none" xmlns="http://www.w3.org/2000/svg">
<path d="M65.4072 21.7444H62.6903C62.6345 21.5217 62.5928 21.2634 62.5651 20.9702C62.5098 20.3995 62.5098 19.8248 62.5651 19.254C62.5928 18.9615 62.6345 18.7034 62.6903 18.4794H69.4613V39.9538C69.1224 40.0129 68.7806 40.0546 68.4374 40.0787C68.0965 40.1049 67.7547 40.1187 67.4128 40.1202C67.0853 40.1181 66.7579 40.1043 66.4314 40.0787C66.0883 40.0544 65.7467 40.0125 65.4079 39.9532V21.7436V21.744L65.4072 21.7444ZM88.9789 27.1449C88.9789 26.3632 88.8742 25.6169 88.6658 24.9047C88.4566 24.1936 88.1492 23.5728 87.7463 23.0423C87.3415 22.5126 86.8264 22.0866 86.1994 21.7658C85.5726 21.4449 84.8271 21.2842 83.9634 21.2842C82.2638 21.2842 80.9611 21.8012 80.0557 22.8333C79.1501 23.8656 78.6001 25.3027 78.4048 27.1449H88.9791H88.9789ZM78.3632 30.2423C78.419 32.5864 79.025 34.303 80.1813 35.3907C81.3371 36.4789 83.0441 37.0239 85.301 37.0239C87.2787 37.0239 89.1596 36.6746 90.9428 35.977C91.1652 36.3955 91.3461 36.9049 91.4857 37.5049C91.6225 38.0891 91.7065 38.6844 91.7364 39.2837C90.8175 39.6754 89.8066 39.9671 88.7068 40.163C87.6055 40.3578 86.3866 40.456 85.0501 40.456C83.099 40.456 81.4269 40.1831 80.0346 39.6394C78.6411 39.0947 77.4918 38.3272 76.5862 37.337C75.6809 36.3466 75.0188 35.1744 74.6009 33.8206C74.1832 32.4676 73.9737 30.9813 73.9737 29.3628C73.9737 27.7722 74.1756 26.2859 74.5798 24.9043C74.9831 23.5237 75.6044 22.3235 76.4393 21.3049C77.2756 20.2859 78.3272 19.477 79.5951 18.877C80.8623 18.277 82.3597 17.9765 84.0881 17.9765C85.5646 17.9765 86.8601 18.2281 87.975 18.7302C89.089 19.2324 90.0227 19.9233 90.7752 20.8023C91.5273 21.6816 92.0985 22.7281 92.4887 23.9414C92.8785 25.1558 93.0742 26.4741 93.0742 27.8977C93.0742 28.2885 93.0594 28.6999 93.0317 29.1322C93.0089 29.5023 92.9811 29.872 92.9484 30.2414H78.3623L78.3627 30.242L78.3632 30.2423ZM97.6322 18.4794C97.923 18.4265 98.2158 18.3847 98.5098 18.354C98.7878 18.3268 99.081 18.3126 99.3875 18.3126C99.694 18.3126 100 18.3268 100.307 18.354C100.613 18.3824 100.892 18.4244 101.143 18.4794C101.226 18.8982 101.31 19.4499 101.393 20.1329C101.476 20.8167 101.519 21.3953 101.519 21.87C102.104 20.9215 102.877 20.0977 103.838 19.3999C104.799 18.7027 106.032 18.3534 107.537 18.3534C107.759 18.3534 107.989 18.3608 108.226 18.3748C108.429 18.3857 108.632 18.4062 108.832 18.437C108.888 18.6885 108.93 18.954 108.958 19.2326C108.985 19.5115 108.999 19.8047 108.999 20.1115C108.999 20.4466 108.978 20.7957 108.937 21.1578C108.897 21.5077 108.848 21.8565 108.791 22.204C108.565 22.1484 108.333 22.1203 108.101 22.1204H107.536C106.784 22.1204 106.066 22.2252 105.384 22.4342C104.701 22.6438 104.088 23.0137 103.545 23.5433C103.002 24.0739 102.57 24.7997 102.25 25.7206C101.929 26.6416 101.769 27.8276 101.769 29.2785V39.9532C101.43 40.0121 101.088 40.0543 100.745 40.0785C100.369 40.1064 100.028 40.12 99.7213 40.12C99.3795 40.1186 99.0379 40.1048 98.6971 40.0785C98.3401 40.0525 97.9844 40.0108 97.6311 39.9534V18.4796L97.6322 18.4794ZM68.2994 7.013C68.2994 7.51403 68.2091 8.01094 68.0328 8.47981C67.5645 8.65643 67.0682 8.74696 66.5678 8.74706H66.5617C66.0613 8.74713 65.565 8.65666 65.0968 8.48003C64.9201 8.01108 64.8297 7.51399 64.8297 7.01278V7.00623C64.8297 6.48986 64.9243 5.99531 65.0957 5.53898C65.564 5.3621 66.0605 5.27163 66.5611 5.27195H66.5667C67.0825 5.27195 67.5761 5.36671 68.0317 5.53898C68.2082 6.00795 68.2986 6.50504 68.2983 7.00623V7.01278H68.299L68.2994 7.013ZM73.4063 5.85143H69.3567L72.2199 2.98352C71.7697 2.35022 71.2169 1.79675 70.5845 1.34597L67.7208 4.21387V0.15776C67.34 0.0936085 66.9546 0.0612556 66.5685 0.0610352H66.5611C66.1682 0.0610352 65.7835 0.0946596 65.4085 0.15776V4.21387L62.5442 1.34575C62.2288 1.57061 61.9327 1.82157 61.6591 2.09597L61.6578 2.09728C61.3843 2.37148 61.1339 2.66799 60.9094 2.98374L63.7737 5.85143H59.7233C59.7233 5.85143 59.6269 6.61344 59.6269 7.00732V7.01213C59.6269 7.40601 59.6603 7.79204 59.7235 8.1678H63.7739L60.9092 11.0353C61.3598 11.6685 61.9126 12.2221 62.5449 12.6733L65.4087 9.80558V13.8619C65.7832 13.9248 66.1674 13.958 66.5598 13.9584H66.5696C66.9553 13.9581 67.3402 13.9258 67.7206 13.8619V9.80558L70.5847 12.6739C70.9002 12.4488 71.1964 12.1979 71.4704 11.9237H71.4711C71.7445 11.6492 71.9948 11.3525 72.2193 11.0366L69.356 8.16802H73.4065C73.4693 7.79248 73.5024 7.40776 73.5024 7.01475V7.0047C73.5024 6.61824 73.4701 6.23287 73.4065 5.85186V5.85143H73.4063ZM0 39.368L11.2846 21.7864H1.33721C1.25394 21.2842 1.2123 20.7265 1.2123 20.1123C1.2123 19.5265 1.25459 18.9818 1.33808 18.4792H17.4287L17.6379 19.0244L6.2699 36.6471H16.927C17.0105 37.2054 17.0526 37.777 17.0526 38.3628C17.0526 38.9217 17.0108 39.4516 16.9273 39.9538H0.20928L0 39.3674V39.368ZM32.5574 29.8652C32.1395 29.8099 31.61 29.7547 30.9693 29.6982C30.3284 29.6429 29.7851 29.6145 29.34 29.6145C27.6121 29.6145 26.2956 29.9355 25.3907 30.5774C24.4845 31.2198 24.0325 32.196 24.0325 33.5075C24.0325 34.3447 24.1851 35.0006 24.4919 35.4748C24.7979 35.9499 25.1814 36.3119 25.6412 36.5632C26.1011 36.8143 26.6091 36.968 27.1661 37.0239C27.7231 37.0796 28.2528 37.1073 28.7542 37.1073C29.3951 37.1073 30.0568 37.0724 30.7395 37.0025C31.4219 36.9333 32.0279 36.8283 32.5576 36.6888V29.8652H32.5574ZM32.5574 25.8054C32.5574 24.1582 32.1395 23.0141 31.3039 22.3722C30.4677 21.7302 29.2558 21.4093 27.6677 21.4093C26.6917 21.4093 25.7798 21.4866 24.9303 21.6399C24.0896 21.791 23.2589 21.9935 22.4429 22.2462C21.9131 21.3252 21.6494 20.2237 21.6494 18.9392C22.5955 18.6326 23.6401 18.3955 24.7831 18.2281C25.9254 18.0604 27.0259 17.9765 28.0852 17.9765C30.8712 17.9765 32.9886 18.6119 34.4377 19.8816C35.8861 21.1523 36.6111 23.1822 36.6111 25.9724V39.4095C35.6354 39.6326 34.4516 39.8628 33.0586 40.1001C31.6501 40.3383 30.2241 40.4574 28.7956 40.456C27.4305 40.456 26.1971 40.3309 25.097 40.0796C23.9961 39.8278 23.0627 39.4241 22.2966 38.8652C21.5297 38.3075 20.9385 37.5957 20.5199 36.7309C20.1022 35.8656 19.8932 34.8193 19.8932 33.5912C19.8932 32.3916 20.1369 31.3379 20.6245 30.4305C21.1037 29.5339 21.7832 28.7604 22.6101 28.1702C23.4459 27.5711 24.4071 27.1239 25.4938 26.8313C26.5807 26.5381 27.7226 26.3914 28.9208 26.3914C29.8124 26.3914 30.5438 26.4128 31.1151 26.4547C31.6859 26.4962 32.1668 26.5451 32.557 26.601V25.8056L32.5574 25.8054ZM45.2625 36.4368C45.7901 36.632 46.3364 36.7723 46.8927 36.8556C47.4499 36.9396 48.1736 36.9813 49.0661 36.9813C50.0689 36.9813 50.988 36.8213 51.8238 36.5003C52.6601 36.18 53.3773 35.6842 53.9764 35.0141C54.5754 34.3447 55.0489 33.501 55.3973 32.4813C55.7454 31.4634 55.9201 30.2569 55.9201 28.8608C55.9201 26.6285 55.5085 24.8564 54.687 23.5447C53.8645 22.2333 52.5201 21.5774 50.654 21.5774C49.9575 21.5774 49.2883 21.7027 48.6484 21.9543C48.0067 22.2054 47.4359 22.5822 46.9343 23.0844C46.4329 23.5866 46.029 24.2219 45.7227 24.9892C45.4153 25.7573 45.2627 26.6704 45.2627 27.7311V36.4375V36.437L45.2625 36.4368ZM41.1248 18.4789C41.4082 18.423 41.6938 18.3813 41.9816 18.3536C42.2804 18.3259 42.5803 18.3121 42.8804 18.3121C43.1581 18.3121 43.4505 18.3265 43.7576 18.3536C44.0637 18.382 44.3562 18.4241 44.6353 18.4792C44.6628 18.5359 44.6981 18.7095 44.7399 19.0027C44.7813 19.296 44.8232 19.6097 44.8653 19.9442C44.9071 20.2794 44.9488 20.601 44.9906 20.9071C45.0325 21.2145 45.0534 21.4099 45.0534 21.4936C45.3314 21.0475 45.666 20.6145 46.0562 20.196C46.4464 19.7772 46.9136 19.4006 47.4569 19.0661C48.0001 18.7309 48.6127 18.4661 49.2957 18.2704C49.978 18.0752 50.7373 17.9768 51.5734 17.9768C52.8269 17.9768 53.9903 18.1864 55.0635 18.6051C56.1357 19.0244 57.0545 19.6722 57.8212 20.5514C58.5871 21.4307 59.1859 22.5471 59.6182 23.9001C60.0498 25.2547 60.2657 26.8521 60.2657 28.6936C60.2657 32.377 59.2694 35.2591 57.2769 37.3377C55.2844 39.4169 52.4641 40.456 48.8141 40.456C48.2009 40.456 47.5744 40.4141 46.9334 40.3305C46.2921 40.2464 45.7353 40.1346 45.2614 39.9957V49.8329C44.9084 49.8904 44.553 49.9323 44.1962 49.9584C43.8197 49.9857 43.4781 49.9999 43.1716 49.9999C42.83 49.9984 42.4885 49.9846 42.1479 49.9584C41.8047 49.9341 41.4631 49.8922 41.1242 49.8329V18.4792L41.1248 18.4789Z" fill="#FF4A00"/>
</svg>
